<mxfile host="app.diagrams.net" modified="2024-02-17T00:01:34.406Z" agent="Mozilla/5.0 (Windows NT 10.0; Win64; x64) AppleWebKit/537.36 (KHTML, like Gecko) Chrome/121.0.0.0 Safari/537.36" etag="oAl8SRApV-PUq9r_r92I" version="23.1.5" type="github">
  <diagram name="Página-1" id="4ojqG_ugSGC-FD4W4Zqo">
    <mxGraphModel dx="2220" dy="708" grid="1" gridSize="10" guides="1" tooltips="1" connect="1" arrows="1" fold="1" page="1" pageScale="1" pageWidth="827" pageHeight="1169" math="0" shadow="0">
      <root>
        <mxCell id="0" />
        <mxCell id="1" parent="0" />
        <mxCell id="BBwxfIjkDkX_LPROG-IG-40" style="edgeStyle=orthogonalEdgeStyle;rounded=0;orthogonalLoop=1;jettySize=auto;html=1;entryX=0.5;entryY=0;entryDx=0;entryDy=0;" edge="1" parent="1" source="BBwxfIjkDkX_LPROG-IG-37" target="BBwxfIjkDkX_LPROG-IG-39">
          <mxGeometry relative="1" as="geometry" />
        </mxCell>
        <mxCell id="BBwxfIjkDkX_LPROG-IG-42" style="edgeStyle=orthogonalEdgeStyle;rounded=0;orthogonalLoop=1;jettySize=auto;html=1;entryX=0.5;entryY=0;entryDx=0;entryDy=0;" edge="1" parent="1" source="BBwxfIjkDkX_LPROG-IG-37" target="BBwxfIjkDkX_LPROG-IG-41">
          <mxGeometry relative="1" as="geometry" />
        </mxCell>
        <mxCell id="BBwxfIjkDkX_LPROG-IG-44" style="edgeStyle=orthogonalEdgeStyle;rounded=0;orthogonalLoop=1;jettySize=auto;html=1;entryX=0;entryY=0.5;entryDx=0;entryDy=0;" edge="1" parent="1" source="BBwxfIjkDkX_LPROG-IG-37" target="BBwxfIjkDkX_LPROG-IG-43">
          <mxGeometry relative="1" as="geometry" />
        </mxCell>
        <mxCell id="BBwxfIjkDkX_LPROG-IG-37" value="Cliente" style="whiteSpace=wrap;html=1;align=center;" vertex="1" parent="1">
          <mxGeometry x="-30" y="10" width="100" height="40" as="geometry" />
        </mxCell>
        <mxCell id="BBwxfIjkDkX_LPROG-IG-39" value="codigo" style="ellipse;whiteSpace=wrap;html=1;align=center;fontStyle=4;" vertex="1" parent="1">
          <mxGeometry x="-97" y="90" width="100" height="40" as="geometry" />
        </mxCell>
        <mxCell id="BBwxfIjkDkX_LPROG-IG-41" value="nome" style="ellipse;whiteSpace=wrap;html=1;align=center;" vertex="1" parent="1">
          <mxGeometry x="33" y="90" width="100" height="40" as="geometry" />
        </mxCell>
        <mxCell id="BBwxfIjkDkX_LPROG-IG-46" style="edgeStyle=orthogonalEdgeStyle;rounded=0;orthogonalLoop=1;jettySize=auto;html=1;entryX=0;entryY=0.5;entryDx=0;entryDy=0;" edge="1" parent="1" source="BBwxfIjkDkX_LPROG-IG-43" target="BBwxfIjkDkX_LPROG-IG-45">
          <mxGeometry relative="1" as="geometry" />
        </mxCell>
        <mxCell id="BBwxfIjkDkX_LPROG-IG-43" value="Contrata Serviço" style="shape=rhombus;perimeter=rhombusPerimeter;whiteSpace=wrap;html=1;align=center;" vertex="1" parent="1">
          <mxGeometry x="170" width="120" height="60" as="geometry" />
        </mxCell>
        <mxCell id="BBwxfIjkDkX_LPROG-IG-48" style="edgeStyle=orthogonalEdgeStyle;rounded=0;orthogonalLoop=1;jettySize=auto;html=1;entryX=0.5;entryY=0;entryDx=0;entryDy=0;" edge="1" parent="1" source="BBwxfIjkDkX_LPROG-IG-45" target="BBwxfIjkDkX_LPROG-IG-47">
          <mxGeometry relative="1" as="geometry">
            <Array as="points">
              <mxPoint x="430" y="75" />
              <mxPoint x="364" y="75" />
            </Array>
          </mxGeometry>
        </mxCell>
        <mxCell id="BBwxfIjkDkX_LPROG-IG-50" style="edgeStyle=orthogonalEdgeStyle;rounded=0;orthogonalLoop=1;jettySize=auto;html=1;exitX=0.5;exitY=1;exitDx=0;exitDy=0;entryX=0.5;entryY=0;entryDx=0;entryDy=0;" edge="1" parent="1" source="BBwxfIjkDkX_LPROG-IG-45" target="BBwxfIjkDkX_LPROG-IG-49">
          <mxGeometry relative="1" as="geometry">
            <Array as="points">
              <mxPoint x="460" y="50" />
              <mxPoint x="460" y="75" />
              <mxPoint x="530" y="75" />
            </Array>
          </mxGeometry>
        </mxCell>
        <mxCell id="BBwxfIjkDkX_LPROG-IG-52" style="edgeStyle=orthogonalEdgeStyle;rounded=0;orthogonalLoop=1;jettySize=auto;html=1;exitX=0.5;exitY=1;exitDx=0;exitDy=0;entryX=0;entryY=0.5;entryDx=0;entryDy=0;" edge="1" parent="1" source="BBwxfIjkDkX_LPROG-IG-45" target="BBwxfIjkDkX_LPROG-IG-51">
          <mxGeometry relative="1" as="geometry" />
        </mxCell>
        <mxCell id="BBwxfIjkDkX_LPROG-IG-54" style="edgeStyle=orthogonalEdgeStyle;rounded=0;orthogonalLoop=1;jettySize=auto;html=1;exitX=0.5;exitY=1;exitDx=0;exitDy=0;entryX=1;entryY=0.5;entryDx=0;entryDy=0;" edge="1" parent="1" source="BBwxfIjkDkX_LPROG-IG-45" target="BBwxfIjkDkX_LPROG-IG-53">
          <mxGeometry relative="1" as="geometry">
            <Array as="points">
              <mxPoint x="440" y="50" />
              <mxPoint x="440" y="185" />
            </Array>
          </mxGeometry>
        </mxCell>
        <mxCell id="BBwxfIjkDkX_LPROG-IG-45" value="Ordem Serviço" style="whiteSpace=wrap;html=1;align=center;" vertex="1" parent="1">
          <mxGeometry x="400" y="10" width="100" height="40" as="geometry" />
        </mxCell>
        <mxCell id="BBwxfIjkDkX_LPROG-IG-47" value="numero" style="ellipse;whiteSpace=wrap;html=1;align=center;fontStyle=4;" vertex="1" parent="1">
          <mxGeometry x="314" y="100" width="100" height="40" as="geometry" />
        </mxCell>
        <mxCell id="BBwxfIjkDkX_LPROG-IG-49" value="&lt;span style=&quot;border-bottom: 1px dotted&quot;&gt;cod_cliente&lt;/span&gt;" style="ellipse;whiteSpace=wrap;html=1;align=center;" vertex="1" parent="1">
          <mxGeometry x="480" y="100" width="100" height="40" as="geometry" />
        </mxCell>
        <mxCell id="BBwxfIjkDkX_LPROG-IG-51" value="&lt;span style=&quot;border-bottom: 1px dotted&quot;&gt;cod_colaborador&lt;/span&gt;" style="ellipse;whiteSpace=wrap;html=1;align=center;" vertex="1" parent="1">
          <mxGeometry x="484" y="160" width="110" height="50" as="geometry" />
        </mxCell>
        <mxCell id="BBwxfIjkDkX_LPROG-IG-53" value="tipo_servico" style="ellipse;whiteSpace=wrap;html=1;align=center;" vertex="1" parent="1">
          <mxGeometry x="314" y="165" width="100" height="40" as="geometry" />
        </mxCell>
        <mxCell id="BBwxfIjkDkX_LPROG-IG-56" style="edgeStyle=orthogonalEdgeStyle;rounded=0;orthogonalLoop=1;jettySize=auto;html=1;entryX=1;entryY=0.5;entryDx=0;entryDy=0;" edge="1" parent="1" source="BBwxfIjkDkX_LPROG-IG-55" target="BBwxfIjkDkX_LPROG-IG-45">
          <mxGeometry relative="1" as="geometry" />
        </mxCell>
        <mxCell id="BBwxfIjkDkX_LPROG-IG-55" value="Executa" style="shape=rhombus;perimeter=rhombusPerimeter;whiteSpace=wrap;html=1;align=center;" vertex="1" parent="1">
          <mxGeometry x="620" width="120" height="60" as="geometry" />
        </mxCell>
        <mxCell id="BBwxfIjkDkX_LPROG-IG-58" style="edgeStyle=orthogonalEdgeStyle;rounded=0;orthogonalLoop=1;jettySize=auto;html=1;entryX=1;entryY=0.5;entryDx=0;entryDy=0;" edge="1" parent="1" source="BBwxfIjkDkX_LPROG-IG-57" target="BBwxfIjkDkX_LPROG-IG-55">
          <mxGeometry relative="1" as="geometry" />
        </mxCell>
        <mxCell id="BBwxfIjkDkX_LPROG-IG-60" style="edgeStyle=orthogonalEdgeStyle;rounded=0;orthogonalLoop=1;jettySize=auto;html=1;entryX=0.5;entryY=0;entryDx=0;entryDy=0;" edge="1" parent="1" source="BBwxfIjkDkX_LPROG-IG-57" target="BBwxfIjkDkX_LPROG-IG-59">
          <mxGeometry relative="1" as="geometry">
            <Array as="points">
              <mxPoint x="900" y="70" />
              <mxPoint x="830" y="70" />
            </Array>
          </mxGeometry>
        </mxCell>
        <mxCell id="BBwxfIjkDkX_LPROG-IG-62" style="edgeStyle=orthogonalEdgeStyle;rounded=0;orthogonalLoop=1;jettySize=auto;html=1;entryX=0.5;entryY=0;entryDx=0;entryDy=0;" edge="1" parent="1" source="BBwxfIjkDkX_LPROG-IG-57" target="BBwxfIjkDkX_LPROG-IG-61">
          <mxGeometry relative="1" as="geometry">
            <Array as="points">
              <mxPoint x="930" y="70" />
              <mxPoint x="997" y="70" />
            </Array>
          </mxGeometry>
        </mxCell>
        <mxCell id="BBwxfIjkDkX_LPROG-IG-64" style="edgeStyle=orthogonalEdgeStyle;rounded=0;orthogonalLoop=1;jettySize=auto;html=1;entryX=0;entryY=0.5;entryDx=0;entryDy=0;" edge="1" parent="1" source="BBwxfIjkDkX_LPROG-IG-57" target="BBwxfIjkDkX_LPROG-IG-63">
          <mxGeometry relative="1" as="geometry">
            <Array as="points">
              <mxPoint x="920" y="200" />
            </Array>
          </mxGeometry>
        </mxCell>
        <mxCell id="BBwxfIjkDkX_LPROG-IG-71" style="edgeStyle=orthogonalEdgeStyle;rounded=0;orthogonalLoop=1;jettySize=auto;html=1;entryX=1;entryY=0.5;entryDx=0;entryDy=0;" edge="1" parent="1" source="BBwxfIjkDkX_LPROG-IG-57" target="BBwxfIjkDkX_LPROG-IG-70">
          <mxGeometry relative="1" as="geometry" />
        </mxCell>
        <mxCell id="BBwxfIjkDkX_LPROG-IG-73" style="edgeStyle=orthogonalEdgeStyle;rounded=0;orthogonalLoop=1;jettySize=auto;html=1;exitX=0.5;exitY=1;exitDx=0;exitDy=0;entryX=1;entryY=0.5;entryDx=0;entryDy=0;" edge="1" parent="1" source="BBwxfIjkDkX_LPROG-IG-57" target="BBwxfIjkDkX_LPROG-IG-72">
          <mxGeometry relative="1" as="geometry" />
        </mxCell>
        <mxCell id="BBwxfIjkDkX_LPROG-IG-57" value="Colaborador" style="whiteSpace=wrap;html=1;align=center;" vertex="1" parent="1">
          <mxGeometry x="860" y="10" width="100" height="40" as="geometry" />
        </mxCell>
        <mxCell id="BBwxfIjkDkX_LPROG-IG-59" value="cod_identificacao" style="ellipse;whiteSpace=wrap;html=1;align=center;fontStyle=4;" vertex="1" parent="1">
          <mxGeometry x="770" y="90" width="120" height="50" as="geometry" />
        </mxCell>
        <mxCell id="BBwxfIjkDkX_LPROG-IG-61" value="pis" style="ellipse;whiteSpace=wrap;html=1;align=center;fontStyle=4;" vertex="1" parent="1">
          <mxGeometry x="947" y="91" width="100" height="40" as="geometry" />
        </mxCell>
        <mxCell id="BBwxfIjkDkX_LPROG-IG-68" style="edgeStyle=orthogonalEdgeStyle;rounded=0;orthogonalLoop=1;jettySize=auto;html=1;entryX=0.5;entryY=0;entryDx=0;entryDy=0;" edge="1" parent="1" source="BBwxfIjkDkX_LPROG-IG-63" target="BBwxfIjkDkX_LPROG-IG-67">
          <mxGeometry relative="1" as="geometry" />
        </mxCell>
        <mxCell id="BBwxfIjkDkX_LPROG-IG-69" style="edgeStyle=orthogonalEdgeStyle;rounded=0;orthogonalLoop=1;jettySize=auto;html=1;exitX=0.5;exitY=1;exitDx=0;exitDy=0;entryX=0.5;entryY=0;entryDx=0;entryDy=0;" edge="1" parent="1" source="BBwxfIjkDkX_LPROG-IG-63" target="BBwxfIjkDkX_LPROG-IG-65">
          <mxGeometry relative="1" as="geometry" />
        </mxCell>
        <mxCell id="BBwxfIjkDkX_LPROG-IG-63" value="nome" style="ellipse;whiteSpace=wrap;html=1;align=center;" vertex="1" parent="1">
          <mxGeometry x="977" y="180" width="100" height="40" as="geometry" />
        </mxCell>
        <mxCell id="BBwxfIjkDkX_LPROG-IG-65" value="sobrenome" style="ellipse;whiteSpace=wrap;html=1;align=center;dashed=1;" vertex="1" parent="1">
          <mxGeometry x="1038.5" y="260" width="100" height="40" as="geometry" />
        </mxCell>
        <mxCell id="BBwxfIjkDkX_LPROG-IG-67" value="primeiro_nome" style="ellipse;whiteSpace=wrap;html=1;align=center;dashed=1;" vertex="1" parent="1">
          <mxGeometry x="915.5" y="260" width="100" height="40" as="geometry" />
        </mxCell>
        <mxCell id="BBwxfIjkDkX_LPROG-IG-70" value="departamento" style="ellipse;whiteSpace=wrap;html=1;align=center;" vertex="1" parent="1">
          <mxGeometry x="780" y="180" width="100" height="40" as="geometry" />
        </mxCell>
        <mxCell id="BBwxfIjkDkX_LPROG-IG-72" value="cargo" style="ellipse;whiteSpace=wrap;html=1;align=center;" vertex="1" parent="1">
          <mxGeometry x="780" y="250" width="100" height="40" as="geometry" />
        </mxCell>
      </root>
    </mxGraphModel>
  </diagram>
</mxfile>
